<svg width="755" height="237" viewBox="0 0 755 237" fill="none" xmlns="http://www.w3.org/2000/svg">
<g clip-path="url(#clip0_901_3984)">
<path d="M132.617 57.0845C129.467 56.5412 126.234 56.2421 122.93 56.2421C122.799 56.2421 122.671 56.2512 122.541 56.2517C123.168 59.628 123.512 63.1025 123.512 66.6573C123.512 97.8756 98.2165 123.291 67.0465 123.503C66.9163 123.503 66.788 123.512 66.6574 123.512C63.3538 123.512 60.1209 123.213 56.9702 122.67C30.2219 118.056 9.8026 94.7028 9.8026 66.6573C9.8026 35.3083 35.3084 9.8025 66.6574 9.8025C90.917 9.8025 111.666 25.0821 119.815 46.5185C120.848 46.4706 121.886 46.4395 122.93 46.4395C125.426 46.4395 127.888 46.5893 130.313 46.8578C121.861 19.7401 96.5216 0 66.6573 0C29.9016 0 0 29.9016 0 66.6573C0 100.917 25.9815 129.21 59.2743 132.896C61.7 133.165 64.1612 133.315 66.6573 133.315C67.7019 133.315 68.7391 133.284 69.7723 133.236C105.087 131.603 133.315 102.369 133.315 66.6573C133.315 63.4064 133.069 60.2124 132.617 57.0845Z" fill="#0250C1"/>
<path d="M130.313 46.858C127.887 46.5895 125.426 46.4397 122.93 46.4397C121.885 46.4397 120.848 46.4708 119.815 46.5187C84.5005 48.1518 56.2727 77.3857 56.2727 113.097C56.2727 116.348 56.5182 119.542 56.9701 122.67C60.1207 123.213 63.3537 123.512 66.6573 123.512C66.788 123.512 66.9162 123.503 67.0464 123.503C66.4194 120.126 66.0752 116.652 66.0752 113.097C66.0752 81.8788 91.3709 56.4634 122.541 56.2519C122.671 56.2514 122.799 56.2423 122.93 56.2423C126.234 56.2423 129.467 56.5415 132.617 57.0847C159.366 61.6988 179.785 85.0516 179.785 113.097C179.785 144.446 154.279 169.952 122.93 169.952C98.6704 169.952 77.9211 154.672 69.7722 133.236C68.7391 133.284 67.7018 133.315 66.6572 133.315C64.1611 133.315 61.6999 133.165 59.2742 132.897C67.7265 160.014 93.0657 179.754 122.93 179.754C159.686 179.754 189.587 149.853 189.587 113.097C189.587 78.8376 163.606 50.5445 130.313 46.858Z" fill="black"/>
<path d="M237.137 41.5212H286.322C294.548 41.5212 301.119 42.5974 306.032 44.7448C310.943 46.8952 314.535 50.4557 316.809 55.4294C319.08 60.403 320.217 67.2507 320.217 75.9694V136.759H237.137V41.5212ZM301.243 118.522V75.0486C301.243 69.2771 300.074 65.2849 297.743 63.074C295.408 60.864 291.6 59.7586 286.322 59.7586H256.111V118.522L301.243 118.522Z" fill="#0250C1"/>
<path d="M351.717 102.496V60.4948H336.427V41.5212H370.69V102.496H351.717Z" fill="#0250C1"/>
<path d="M385.612 137.312L386.348 118.339C388.804 118.707 391.138 118.89 393.348 118.89C398.627 118.89 402.219 117.449 404.125 114.562C406.028 111.677 406.98 107.409 406.98 101.759V60.4948H389.848V41.5212H486.744L486.56 136.76H467.586L467.77 60.4949H425.954V104.522C425.954 116.067 423.496 124.541 418.586 129.944C413.672 135.349 405.996 138.049 395.559 138.049C391.751 138.049 388.435 137.801 385.612 137.312Z" fill="#0250C1"/>
<path d="M519.35 102.496V60.4948H504.06V41.5212H538.324V102.496H519.35Z" fill="#0250C1"/>
<path d="M601.876 136.944L603.165 117.969C606.358 118.462 608.937 118.707 610.903 118.707C619.252 118.586 625.3 115.514 629.047 109.496C632.792 103.48 634.665 95.988 634.665 87.0222C634.665 78.0564 632.608 71.1511 628.494 66.2976C624.378 61.448 618.824 59.0212 611.824 59.0212C597.331 59.0212 588.673 69.5212 585.85 90.5222L579.771 136.76H560.06L569.639 74.864C566.324 63.9353 561.718 53.8035 555.824 44.4685V41.5212H575.718C578.911 46.6794 581.734 52.5739 584.192 59.2058C587.016 53.3113 591.161 48.6453 596.626 45.2058C602.089 41.7693 608.445 40.0476 615.692 40.0476C626.99 40.0476 636.108 43.9158 643.047 51.6531C649.984 59.3904 653.516 70.8113 653.64 85.9168C653.64 100.285 650.416 112.507 643.968 122.575C637.521 132.646 627.05 137.681 612.561 137.681C608.508 137.681 604.945 137.433 601.876 136.944Z" fill="#0250C1"/>
<path d="M670.772 121.101L683.114 119.996C687.903 119.627 692.384 118.954 696.561 117.969C686.121 94.1461 677.403 69.5845 670.403 44.2847V41.521H690.666C696.806 66.0845 704.603 90.1538 714.061 113.733C719.708 111.154 724.037 107.593 727.048 103.048C730.056 98.5063 732.082 92.9477 733.127 86.3774C734.169 79.809 734.753 71.4272 734.877 61.2319L735.061 41.521H754.772L754.404 63.811C753.911 81.1264 751.3 94.9741 746.574 105.351C741.845 115.73 734.629 123.528 724.929 128.745C715.227 133.967 702.272 137.248 686.061 138.601L672.061 139.706L670.772 121.101Z" fill="#0250C1"/>
<path d="M455.732 226.942V199.313H432.793V193.723H461.322V226.942L455.732 226.942ZM434.207 226.942V207.28H439.926V226.942H434.207Z" fill="#0250C1"/>
<path d="M475.715 214.669V199.313H470.061V193.723H481.241V214.669L475.715 214.669Z" fill="#0250C1"/>
<path d="M498.944 225.303C496.652 223.869 494.917 221.866 493.739 219.295C492.56 216.726 491.972 213.77 491.972 210.429C491.972 206.617 492.721 202.911 494.221 199.313H490.044V193.723H506.237C511.933 193.723 516.077 195.04 518.67 197.674C521.261 200.309 522.557 204.432 522.557 210.043C522.557 213.513 521.925 216.565 520.661 219.2C519.398 221.833 517.598 223.869 515.264 225.303C512.929 226.74 510.198 227.456 507.072 227.456C503.945 227.456 501.235 226.74 498.944 225.303ZM514.365 218.846C516.141 216.662 517.031 213.77 517.031 210.171C517.031 206.532 516.249 203.811 514.686 202.011C513.122 200.212 510.326 199.313 506.301 199.313H499.361C497.947 202.697 497.241 206.082 497.241 209.465C497.283 213.535 498.194 216.662 499.971 218.846C501.749 221.031 504.18 222.123 507.264 222.123C510.22 222.123 512.587 221.031 514.365 218.846Z" fill="#0250C1"/>
<path d="M528.725 227.006L528.983 221.481C530.438 221.567 531.402 221.609 531.874 221.609C534.144 221.609 535.686 221.106 536.5 220.099C537.313 219.093 537.721 217.561 537.721 215.505V199.313H530.267V193.723H543.247V216.019C543.247 219.788 542.38 222.583 540.645 224.404C538.91 226.225 536.136 227.135 532.323 227.135C530.781 227.135 529.582 227.091 528.725 227.006Z" fill="#0250C1"/>
<path d="M553.913 226.877L553.977 221.288C556.804 221.588 559.609 221.738 562.394 221.738C567.577 221.738 571.197 220.752 573.253 218.782C575.309 216.812 576.337 213.962 576.337 210.236C576.337 206.38 575.523 203.553 573.896 201.754C572.267 199.956 569.398 199.056 565.285 199.056H559.246L558.925 202.205C558.838 203.062 558.796 203.64 558.796 203.939C558.796 205.782 559.192 207.067 559.985 207.794C560.777 208.523 561.922 208.951 563.422 209.08H564.193C564.964 209.08 565.543 209.058 565.928 209.015L566.378 213.127C565.007 213.427 563.872 213.578 562.972 213.578C560.059 213.578 557.746 212.892 556.033 211.521C554.319 210.151 553.463 207.645 553.463 204.003C553.463 202.89 553.505 202.011 553.592 201.369L554.491 193.723H566.571C571.882 193.723 575.769 195.104 578.233 197.867C580.696 200.63 581.927 204.775 581.927 210.3C581.927 215.569 580.406 219.713 577.365 222.734C574.323 225.753 569.504 227.263 562.908 227.263C559.524 227.263 556.525 227.135 553.913 226.877Z" fill="#0250C1"/>
<path d="M604.288 227.135L604.481 221.609C605.595 221.695 606.43 221.737 606.987 221.737C608.915 221.737 610.232 221.223 610.939 220.195C611.645 219.167 611.999 217.561 611.999 215.376V199.313H605.767V193.723H639.243L639.179 226.942H633.653V199.313H617.589V216.083C617.589 219.938 616.775 222.777 615.147 224.597C613.519 226.418 610.992 227.327 607.565 227.327C606.409 227.327 605.317 227.263 604.288 227.135Z" fill="#0250C1"/>
<path d="M653.764 226.942V199.313H647.981V193.723H659.289V226.942L653.764 226.942Z" fill="#0250C1"/>
<path d="M668.093 227.006L668.35 221.481C669.805 221.567 670.769 221.609 671.241 221.609C673.511 221.609 675.053 221.106 675.867 220.099C676.68 219.093 677.088 217.561 677.088 215.505V199.313H669.635V193.723H682.614V216.019C682.614 219.788 681.747 222.583 680.012 224.404C678.277 226.225 675.503 227.135 671.691 227.135C670.149 227.135 668.949 227.091 668.093 227.006Z" fill="#0250C1"/>
<path d="M708.027 200.694C707.105 199.774 705.51 199.313 703.24 199.313H690.967V193.723H703.24C706.152 193.723 708.454 194.087 710.147 194.815C711.839 195.543 713.071 196.785 713.842 198.541C714.613 200.298 714.998 202.718 714.998 205.802V226.942H709.408V205.802C709.408 203.319 708.948 201.615 708.027 200.694Z" fill="#0250C1"/>
<path d="M740.057 226.171L739.929 225.143L748.539 199.313H725.215V193.723H754.772V196.55L745.648 226.171H740.057ZM727.142 236.13V207.794H732.733V236.13H727.142Z" fill="#0250C1"/>
</g>
<defs>
<clipPath id="clip0_901_3984">
<rect width="754.772" height="236.13" fill="white"/>
</clipPath>
</defs>
</svg>
