<?xml version="1.0" encoding="UTF-8" standalone="no"?>
<svg
   xmlns:dc="http://purl.org/dc/elements/1.1/"
   xmlns:cc="http://creativecommons.org/ns#"
   xmlns:rdf="http://www.w3.org/1999/02/22-rdf-syntax-ns#"
   xmlns:svg="http://www.w3.org/2000/svg"
   xmlns="http://www.w3.org/2000/svg"
   xmlns:sodipodi="http://sodipodi.sourceforge.net/DTD/sodipodi-0.dtd"
   xmlns:inkscape="http://www.inkscape.org/namespaces/inkscape"
   width="100"
   height="150"
   viewBox="0 0 100 150"
   version="1.1"
   id="svg22"
   sodipodi:docname="מגדל.svg"
   style="fill:none"
   inkscape:version="0.92.5 (2060ec1f9f, 2020-04-08)">
  <metadata
     id="metadata28">
    <rdf:RDF>
      <cc:Work
         rdf:about="">
        <dc:format>image/svg+xml</dc:format>
        <dc:type
           rdf:resource="http://purl.org/dc/dcmitype/StillImage" />
        <dc:title></dc:title>
      </cc:Work>
    </rdf:RDF>
  </metadata>
  <defs
     id="defs26" />
  <sodipodi:namedview
     pagecolor="#ffffff"
     bordercolor="#666666"
     borderopacity="1"
     objecttolerance="10"
     gridtolerance="10"
     guidetolerance="10"
     inkscape:pageopacity="0"
     inkscape:pageshadow="2"
     inkscape:window-width="2880"
     inkscape:window-height="1495"
     id="namedview24"
     showgrid="false"
     inkscape:zoom="4.3065084"
     inkscape:cx="113.18933"
     inkscape:cy="51.179438"
     inkscape:window-x="-13"
     inkscape:window-y="-13"
     inkscape:window-maximized="1"
     inkscape:current-layer="svg22" />
  <path
     d="m 86.930452,123.5714 c -2.738391,0 -5.51785,1.10385 -7.880989,3.27157 l -2.034741,-2.80579 H 68.99882 l 5.998662,8.87901 c -0.633229,1.57102 -0.967553,2.88846 -1.266597,4.37817 l -1.888112,12.23877 h 6.579249 l 1.964321,-11.38849 c 0.803423,-4.71443 3.24277,-7.86335 6.532395,-7.86335 3.453755,-0.0414 6.028015,2.6349 6.028015,6.62859 0,3.99368 -2.908446,6.75812 -6.655457,6.75812 -0.674434,0 -2.292856,-0.20671 -3.078502,-0.44925 l -0.04107,6.40396 c 1.008485,0.23014 2.193086,0.37759 3.078505,0.37759 8.004189,0 13.357771,-5.2698 13.357771,-13.1731 0,-7.9047 -5.101531,-13.2558 -12.683474,-13.2558"
     id="path2"
     inkscape:connector-curvature="0"
     style="fill:#020140;stroke-width:1.37808418" />
  <path
     d="M 23.612857,124.03718 H 7.0064184 v -5.94779 H 0.392 v 12.61773 h 15.844109 l -7.7285573,18.82601 h 7.3590933 l 8.03933,-19.54675 c 0.08213,-0.21222 0.12899,-0.42582 0.12899,-0.50851 v -5.44069 z"
     id="path4"
     inkscape:connector-curvature="0"
     style="fill:#020140;stroke-width:1.37808418" />
  <path
     d="m 26.644229,124.03718 v 6.66994 H 41.58528 l -2.023027,2.07953 c -0.04107,0.0414 -0.08213,0.17088 -0.08213,0.25357 v 16.4874 h 6.743518 v -18.82601 h 4.004988 v -6.66993 H 26.650154 Z"
     id="path6"
     inkscape:connector-curvature="0"
     style="fill:#020140;stroke-width:1.37808418" />
  <path
     d="M 69.767653,149.53313 64.484354,124.03718 H 53.601072 v 6.66994 h 5.265797 l 1.981961,10.19644 c -0.170056,1.14519 -1.137609,1.91279 -2.445273,1.91279 h -6.995568 v 6.71678 h 6.069082 c 1.811906,0 2.316284,-0.29491 4.380379,-4.12323 l 1.682917,4.12323 z"
     id="path8"
     inkscape:connector-curvature="0"
     style="fill:#020140;stroke-width:1.37808418" />
  <path
     d="M 69.592498,89.020218 H 32.266399 L 20.244956,105.90161 h 61.368985 z"
     id="path10"
     inkscape:connector-curvature="0"
     style="fill:#020140;stroke-width:1.37808418" />
  <path
     d="m 47.49988,86.110392 v -7.942726 c 0,-1.795505 1.35314,-3.263441 3.083463,-3.43391 0.104045,0 0.208091,-0.0131 0.325228,-0.0131 h 0.02604 c 1.899413,0 3.434599,1.546624 3.434599,3.460232 v 7.942589 H 68.329209 V 69.255183 H 33.540023 V 86.123485 H 47.49988 Z"
     id="path12"
     inkscape:connector-curvature="0"
     style="fill:#020140;stroke-width:1.37808418" />
  <path
     d="m 68.397011,66.31945 8.755933,-16.868302 h -7.858111 v 3.250487 h -4.03324 v -3.250487 h -6.869336 v 3.250487 h -4.033101 v -3.250487 h -6.856382 v 3.250487 H 43.45658 v -3.250487 h -6.856244 v 3.250487 h -4.03324 v -3.250487 h -7.85811 l 8.742841,16.868302 z"
     id="path14"
     inkscape:connector-curvature="0"
     style="fill:#020140;stroke-width:1.37808418" />
  <path
     d="m 64.676045,46.528507 v -9.921792 l 3.603828,-6.946511 H 33.503642 l 3.603829,6.946511 v 9.921792 z"
     id="path16"
     inkscape:connector-curvature="0"
     style="fill:#020140;stroke-width:1.37808418" />
  <path
     d="M 62.800886,9.869124 H 38.966231 v 16.868164 h 23.834655 z"
     id="path18"
     inkscape:connector-curvature="0"
     style="fill:#020140;stroke-width:1.37808418" />
  <path
     d="M 67.094721,6.946207 70.698549,-3.02e-4 H 63.803167 V 3.250186 H 59.770066 V -3.02e-4 H 52.900592 V 3.250186 H 48.867489 V -3.02e-4 H 42.011108 V 3.250186 H 37.978007 V -3.02e-4 h -6.895383 l 3.603829,6.946509 z"
     id="path20"
     inkscape:connector-curvature="0"
     style="fill:#020140;stroke-width:1.37808418" />
</svg>
